{
    "asset" : {
        "generator" : "Khronos glTF Blender I/O v1.8.19",
        "version" : "2.0"
    },
    "scene" : 0,
    "scenes" : [
        {
            "name" : "Scene",
            "nodes" : [
                2
            ]
        }
    ],
    "nodes" : [
        {
            "mesh" : 0,
            "name" : "sopimport1"
        },
        {
            "children" : [
                0
            ],
            "name" : "materials"
        },
        {
            "children" : [
                1
            ],
            "name" : "torus_gold_oldest",
            "rotation" : [
                0.7071067094802856,
                0,
                0,
                0.7071068286895752
            ]
        }
    ],
    "materials" : [
        {
            "doubleSided" : true,
            "name" : "usdpreviewsurface1.002",
            "pbrMetallicRoughness" : {
                "baseColorFactor" : [
                    0.5,
                    0.3235294222831726,
                    0,
                    1
                ],
                "roughnessFactor" : 0
            }
        }
    ],
    "meshes" : [
        {
            "name" : "mesh_0.002",
            "primitives" : [
                {
                    "attributes" : {
                        "POSITION" : 0,
                        "NORMAL" : 1
                    },
                    "indices" : 2,
                    "material" : 0
                }
            ]
        }
    ],
    "accessors" : [
        {
            "bufferView" : 0,
            "componentType" : 5126,
            "count" : 50000,
            "max" : [
                6.099999904632568,
                6.099999904632568,
                0.10000000149011612
            ],
            "min" : [
                -6.099999904632568,
                -6.099999904632568,
                -0.10000000149011612
            ],
            "type" : "VEC3"
        },
        {
            "bufferView" : 1,
            "componentType" : 5126,
            "count" : 50000,
            "type" : "VEC3"
        },
        {
            "bufferView" : 2,
            "componentType" : 5123,
            "count" : 300000,
            "type" : "SCALAR"
        }
    ],
    "bufferViews" : [
        {
            "buffer" : 0,
            "byteLength" : 600000,
            "byteOffset" : 0
        },
        {
            "buffer" : 0,
            "byteLength" : 600000,
            "byteOffset" : 600000
        },
        {
            "buffer" : 0,
            "byteLength" : 600000,
            "byteOffset" : 1200000
        }
    ],
    "buffers" : [
        {
            "byteLength" : 1800000,
            "uri" : "data:application/octet-stream;base64,"
        }
    ]
}
