{
    "asset" : {
        "generator" : "Khronos glTF Blender I/O v1.8.19",
        "version" : "2.0"
    },
    "scene" : 0,
    "scenes" : [
        {
            "name" : "Scene",
            "nodes" : [
                2,
                3
            ]
        }
    ],
    "nodes" : [
        {
            "mesh" : 0,
            "name" : "mesh_0"
        },
        {
            "children" : [
                0
            ],
            "name" : "Geom"
        },
        {
            "children" : [
                1
            ],
            "name" : "sopimport1",
            "rotation" : [
                0.7071068286895752,
                0,
                0,
                0.7071067094802856
            ]
        },
        {
            "name" : "materials"
        }
    ],
    "materials" : [
        {
            "doubleSided" : true,
            "name" : "usdpreviewsurface1",
            "pbrMetallicRoughness" : {
                "baseColorFactor" : [
                    1,
                    0.6499999761581421,
                    0,
                    1
                ],
                "metallicFactor" : 1,
                "roughnessFactor" : 0.25
            }
        }
    ],
    "meshes" : [
        {
            "name" : "mesh_0.002",
            "primitives" : [
                {
                    "attributes" : {
                        "POSITION" : 0,
                        "NORMAL" : 1
                    },
                    "indices" : 2,
                    "material" : 0
                }
            ]
        }
    ],
    "accessors" : [
        {
            "bufferView" : 0,
            "componentType" : 5126,
            "count" : 16052,
            "max" : [
                3.0508670806884766,
                3.073643684387207,
                1.0785880088806152
            ],
            "min" : [
                -3.1653685569763184,
                -3.109591007232666,
                -2.5587551593780518
            ],
            "type" : "VEC3"
        },
        {
            "bufferView" : 1,
            "componentType" : 5126,
            "count" : 16052,
            "type" : "VEC3"
        },
        {
            "bufferView" : 2,
            "componentType" : 5123,
            "count" : 20382,
            "type" : "SCALAR"
        }
    ],
    "bufferViews" : [
        {
            "buffer" : 0,
            "byteLength" : 192624,
            "byteOffset" : 0
        },
        {
            "buffer" : 0,
            "byteLength" : 192624,
            "byteOffset" : 192624
        },
        {
            "buffer" : 0,
            "byteLength" : 40764,
            "byteOffset" : 385248
        }
    ],
    "buffers" : [
        {
            "byteLength" : 426012,
            "uri" : "untitled.bin"
        }
    ]
}
