{
    "asset" : {
        "generator" : "Khronos glTF Blender I/O v1.8.19",
        "version" : "2.0"
    },
    "scene" : 0,
    "scenes" : [
        {
            "name" : "Scene",
            "nodes" : [
                8
            ]
        }
    ],
    "nodes" : [
        {
            "name" : "materials"
        },
        {
            "mesh" : 0,
            "name" : "mesh_0"
        },
        {
            "children" : [
                0,
                1
            ],
            "name" : "Geom"
        },
        {
            "children" : [
                2
            ],
            "name" : "sphere_gold"
        },
        {
            "children" : [
                3
            ],
            "name" : "Geom.001"
        },
        {
            "children" : [
                4
            ],
            "name" : "sphere_gold.001"
        },
        {
            "children" : [
                5
            ],
            "name" : "Geom.002"
        },
        {
            "name" : "Materials"
        },
        {
            "children" : [
                6,
                7
            ],
            "name" : "sphere_gold.002",
            "rotation" : [
                0.7071068286895752,
                0,
                0,
                0.7071067094802856
            ]
        }
    ],
    "materials" : [
        {
            "doubleSided" : true,
            "name" : "usdpreviewsurface1",
            "pbrMetallicRoughness" : {
                "baseColorFactor" : [
                    1,
                    0.6499999761581421,
                    0,
                    1
                ],
                "metallicFactor" : 1,
                "roughnessFactor" : 0
            }
        }
    ],
    "meshes" : [
        {
            "name" : "mesh_0",
            "primitives" : [
                {
                    "attributes" : {
                        "POSITION" : 0,
                        "NORMAL" : 1
                    },
                    "indices" : 2,
                    "material" : 0
                }
            ]
        }
    ],
    "accessors" : [
        {
            "bufferView" : 0,
            "componentType" : 5126,
            "count" : 25002,
            "max" : [
                0.5,
                0.5,
                0.49999934434890747
            ],
            "min" : [
                -0.5,
                -0.5,
                -0.49999934434890747
            ],
            "type" : "VEC3"
        },
        {
            "bufferView" : 1,
            "componentType" : 5126,
            "count" : 25002,
            "type" : "VEC3"
        },
        {
            "bufferView" : 2,
            "componentType" : 5123,
            "count" : 150000,
            "type" : "SCALAR"
        }
    ],
    "bufferViews" : [
        {
            "buffer" : 0,
            "byteLength" : 300024,
            "byteOffset" : 0
        },
        {
            "buffer" : 0,
            "byteLength" : 300024,
            "byteOffset" : 300024
        },
        {
            "buffer" : 0,
            "byteLength" : 300000,
            "byteOffset" : 600048
        }
    ],
    "buffers" : [
        {
            "byteLength" : 900048,
            "uri" : "data:application/octet-stream;base64,"
        }
    ]
}
